<?xml version="1.0" encoding="utf-8"?>
<!-- Generator: Adobe Illustrator 20.1.0, SVG Export Plug-In . SVG Version: 6.00 Build 0)  -->
<svg version="1.1" id="Layer_1" xmlns="http://www.w3.org/2000/svg" xmlns:xlink="http://www.w3.org/1999/xlink" x="0px" y="0px"
	 viewBox="0 0 50 50" style="enable-background:new 0 0 50 50;" xml:space="preserve">
<style type="text/css">
	.st0{fill:#0000FF;}
</style>
<g>
	<path class="st0" d="M25,0C11.2,0,0,11.2,0,25c0,13.8,11.2,25,25,25c13.8,0,25-11.2,25-25C50,11.2,38.8,0,25,0z M13.7,18.7
		c2.5,0,4.5,2,4.5,4.5c0,2.5-2,4.5-4.5,4.5c-2.5,0-4.5-2-4.5-4.5C9.2,20.7,11.2,18.7,13.7,18.7z M21,47.6c-4-0.6-8.8-3.7-12.3-6.9
		c-1.7-1.5-2.5-2.3-3.6-4.2l0.2-5.1c2.7-1.8,4.4-2.2,7.3-2.2s6.4,1.1,8.4,2.8V47.6z M37.4,15.2c3.4,0,6.2,2.8,6.2,6.2
		s-2.8,6.2-6.2,6.2c-3.4,0-6.2-2.8-6.2-6.2S34,15.2,37.4,15.2z M28,47.7V32.5c1-2,5.6-3.2,9-3.2c3.4,0,7.1,0.9,9.8,2.9
		C41.5,43.7,36,47,28,47.7z"/>
</g>
</svg>
