<?xml version="1.0" encoding="utf-8"?>
<!-- Generator: Adobe Illustrator 20.1.0, SVG Export Plug-In . SVG Version: 6.00 Build 0)  -->
<svg version="1.1" id="Layer_1" xmlns="http://www.w3.org/2000/svg" xmlns:xlink="http://www.w3.org/1999/xlink" x="0px" y="0px"
	 viewBox="0 0 50 50" style="enable-background:new 0 0 50 50;" xml:space="preserve">
<style type="text/css">
	.st0{fill:#0000FF;}
	.st1{fill:#FFFFFF;}
</style>
<g>
	<g>
		<path class="st0" d="M25,50C11.2,50,0,38.8,0,25C0,11.2,11.2,0,25,0s25,11.2,25,25C50,38.8,38.8,50,25,50z M25,2.1
			C12.4,2.1,2.1,12.4,2.1,25c0,12.6,10.3,22.9,22.9,22.9c12.6,0,22.9-10.3,22.9-22.9C47.9,12.4,37.6,2.1,25,2.1z"/>
	</g>
	<path class="st0" d="M25,24.6"/>
	<path class="st0" d="M41.6,31.5l1.2-4.3l-5.1-2.6c0-0.9-0.1-1.9-0.3-2.8l4.3-4l-2.2-3.9l-5.7,1.7c-0.6-0.6-1.3-1.1-2.1-1.6l0.2-5.7
		l-4.3-1.2l-2.9,5c-0.8,0-1.6,0.1-2.3,0.3l-0.3-0.5l-3.8-3.8l-3.9,2.2l1.3,5.2l0.3,0.5c-0.6,0.6-1.1,1.2-1.6,2L13.8,18l-5.4-0.1
		l-1.2,4.3l4.6,3.1l0.6,0.2c0,1,0.1,1.4,0.3,2.1l-0.5,0.3l-3.7,3.8l2.2,3.9l5.2-1.3l0.4-0.3c0.6,0.5,1,0.9,1.8,1.4l-0.1,0.5l0.1,5.6
		l4.3,1.2l2.8-4.8l0.1-0.5c1,0,1.7-0.1,2.6-0.3l4,4.3l3.9-2.2l-1.6-5.6c0.5-0.6,1-1.2,1.5-1.9L41.6,31.5z M22.9,32.6
		c-4.3-1.2-6.9-5.7-5.7-10s5.7-6.9,10-5.7c4.3,1.2,6.9,5.7,5.7,10S27.3,33.8,22.9,32.6z"/>
	<ellipse transform="matrix(0.2635 -0.9647 0.9647 0.2635 -5.3993 42.3919)" class="st1" cx="25.1" cy="24.7" rx="8.2" ry="8.2"/>
</g>
</svg>
