<?xml version="1.0" encoding="utf-8"?>
<!-- Generator: Adobe Illustrator 20.1.0, SVG Export Plug-In . SVG Version: 6.00 Build 0)  -->
<svg version="1.1" id="Layer_1" xmlns="http://www.w3.org/2000/svg" xmlns:xlink="http://www.w3.org/1999/xlink" x="0px" y="0px"
	 viewBox="0 0 50 50" style="enable-background:new 0 0 50 50;" xml:space="preserve">
<style type="text/css">
	.st0{fill:#0000FF;}
	.st1{fill:#FFFFFF;}
</style>
<g>
	<g>
		<path class="st0" d="M25,50C11.2,50,0,38.8,0,25C0,11.2,11.2,0,25,0s25,11.2,25,25C50,38.8,38.8,50,25,50z"/>
	</g>
	<g>
		<g>
			<path class="st1" d="M28.2,19.7c0.1,0.1,0.1,0.1,0.1,0.2l-4.4,15.5c-0.2,0.8-0.3,1.3-0.3,1.5c0,0.2,0,0.4,0.1,0.6
				c0.1,0.2,0.3,0.3,0.5,0.3c0.5,0,1.1-0.4,2-1.3c0.5-0.5,1.1-1.2,1.8-2.2l0.6,0.5L28.3,35c-1.1,1.5-2,2.6-2.7,3.3
				c-1.1,1-2.2,1.6-3.3,1.6c-0.6,0-1.1-0.3-1.6-0.8c-0.4-0.5-0.6-1.1-0.6-1.9c0-0.4,0-0.8,0.1-1.1s0.2-0.8,0.3-1.4l3.1-11.2
				c0-0.2,0.1-0.3,0.1-0.5c0-0.1,0-0.3,0-0.4c0-0.5-0.2-0.8-0.6-1c-0.4-0.1-1.1-0.2-2.3-0.2v-0.7c1.2-0.1,2.1-0.3,2.6-0.3
				c0.5-0.1,1.1-0.2,1.6-0.3c0.7-0.1,1.3-0.2,2-0.4C27.7,19.7,28.1,19.6,28.2,19.7z M26.1,14.2c-0.4-0.5-0.6-1-0.6-1.7
				c0-0.7,0.2-1.2,0.6-1.7c0.4-0.5,0.9-0.7,1.5-0.7c0.6,0,1.1,0.2,1.5,0.7s0.6,1,0.6,1.7c0,0.7-0.2,1.2-0.6,1.7s-0.9,0.7-1.5,0.7
				C27.1,14.9,26.5,14.7,26.1,14.2z"/>
		</g>
	</g>
</g>
</svg>
