<?xml version="1.0" encoding="utf-8"?>
<!-- Generator: Adobe Illustrator 20.1.0, SVG Export Plug-In . SVG Version: 6.00 Build 0)  -->
<svg version="1.1" id="Layer_1" xmlns="http://www.w3.org/2000/svg" xmlns:xlink="http://www.w3.org/1999/xlink" x="0px" y="0px"
	 viewBox="0 0 50 50" style="enable-background:new 0 0 50 50;" xml:space="preserve">
<style type="text/css">
	.st0{fill:#0000FF;}
</style>
<g>
	<g>
		<path class="st0" d="M25,50C11.2,50,0,38.8,0,25C0,11.2,11.2,0,25,0s25,11.2,25,25C50,38.8,38.8,50,25,50z M25,2.1
			C12.4,2.1,2.1,12.4,2.1,25c0,12.6,10.3,22.9,22.9,22.9S47.9,37.6,47.9,25C47.9,12.4,37.6,2.1,25,2.1z"/>
	</g>
	<g>
		<path class="st0" d="M10.3,11.8L25,25.3v-20C19,5.3,13.9,7.8,10.3,11.8z"/>
	</g>
</g>
</svg>
