<?xml version="1.0" encoding="utf-8"?>
<!-- Generator: Adobe Illustrator 20.1.0, SVG Export Plug-In . SVG Version: 6.00 Build 0)  -->
<svg version="1.1" id="Layer_1" xmlns="http://www.w3.org/2000/svg" xmlns:xlink="http://www.w3.org/1999/xlink" x="0px" y="0px"
	 viewBox="0 0 50 50" style="enable-background:new 0 0 50 50;" xml:space="preserve">
<style type="text/css">
	.st0{fill:#0000FF;}
</style>
<g>
	<g>
		<path class="st0" d="M25,50C11.2,50,0,38.8,0,25S11.2,0,25,0s25,11.2,25,25S38.8,50,25,50z M25,2.1C12.4,2.1,2.1,12.4,2.1,25
			S12.4,47.9,25,47.9c12.6,0,22.9-10.3,22.9-22.9S37.6,2.1,25,2.1z"/>
	</g>
	<g>
		<g>
			<g>
				<path class="st0" d="M10.3,29.8h4.3c0.2,2.6,1.7,4.6,5.1,4.6c3.3,0,4.8-1.6,4.8-4.1c0-2.7-1.5-4.1-4.5-4.1H18v-3.3h1.8
					c2.9,0,4.2-1.3,4.2-3.7c0-2-1.3-3.6-3.9-3.6c-2.7,0-4.4,1.6-4.7,4.2h-4.2c0.2-4.4,3.5-7.7,8.9-7.7c5.2,0,8.3,3,8.3,6.8
					c0,2.9-1.7,4.6-4.1,5.5c2.9,0.7,4.9,2.7,4.9,6.1c0,4.6-3.7,7.5-9.4,7.5C13.8,37.9,10.5,34.6,10.3,29.8z"/>
			</g>
		</g>
	</g>
	<g>
		<path class="st0" d="M31.8,20.2V20c0-2.9,2-4.8,4.6-4.8c2.3,0,4.4,1.4,4.4,4.7v0.6H34c0.1,1.8,1,2.8,2.6,2.8c1.3,0,2-0.5,2.1-1.4
			h2.1c-0.3,2-1.9,3-4.3,3C33.8,24.9,31.8,23.1,31.8,20.2z M38.7,19.1c-0.1-1.6-0.9-2.3-2.3-2.3c-1.3,0-2.2,0.9-2.4,2.3H38.7z"/>
	</g>
</g>
</svg>
