<?xml version="1.0" encoding="utf-8"?>
<!-- Generator: Adobe Illustrator 20.1.0, SVG Export Plug-In . SVG Version: 6.00 Build 0)  -->
<svg version="1.1" id="Layer_1" xmlns="http://www.w3.org/2000/svg" xmlns:xlink="http://www.w3.org/1999/xlink" x="0px" y="0px"
	 viewBox="0 0 50 50" style="enable-background:new 0 0 50 50;" xml:space="preserve">
<style type="text/css">
	.st0{fill:#0000FF;}
</style>
<g>
	<g>
		<path class="st0" d="M12.2,35.8l7.2-7.6c1.8-1.9,2.9-3.6,2.9-5.4s-1-2.9-2.8-2.9c-1.9,0-3.1,1.1-3.4,3.8h-3.2
			c0.2-4.1,2.7-6.5,6.8-6.5c3.9,0,6.3,2.3,6.3,5.6c0,2.5-1.5,4.6-3.7,6.8l-4.2,4.1h8.1v2.7h-14V35.8z"/>
	</g>
	<g>
		<path class="st0" d="M32,20.9l-4,2.7v-3.1l4.4-3.1h3.2v19H32V20.9z"/>
	</g>
</g>
<path class="st0" d="M6.4,13.2h37.3h2.4C42.3,5.4,34.3,0,25,0S7.7,5.4,3.9,13.2H6.4z"/>
<g>
	<path class="st0" d="M25,3c12.1,0,22,9.9,22,22s-9.9,22-22,22S3,37.1,3,25S12.9,3,25,3 M25,0C11.2,0,0,11.2,0,25s11.2,25,25,25
		s25-11.2,25-25S38.8,0,25,0L25,0z"/>
</g>
</svg>
