<?xml version="1.0" encoding="utf-8"?>
<!-- Generator: Adobe Illustrator 20.1.0, SVG Export Plug-In . SVG Version: 6.00 Build 0)  -->
<svg version="1.1" id="Layer_1" xmlns="http://www.w3.org/2000/svg" xmlns:xlink="http://www.w3.org/1999/xlink" x="0px" y="0px"
	 viewBox="0 0 50 50" style="enable-background:new 0 0 50 50;" xml:space="preserve">
<style type="text/css">
	.st0{fill:#0000FF;}
</style>
<g>
	<path class="st0" d="M25,50C11.2,50,0,38.8,0,25C0,11.2,11.2,0,25,0s25,11.2,25,25C50,38.8,38.8,50,25,50z M25,2.1
		C12.4,2.1,2.1,12.4,2.1,25c0,12.6,10.3,22.9,22.9,22.9S47.9,37.6,47.9,25C47.9,12.4,37.6,2.1,25,2.1z"/>
	<path class="st0" d="M19.1,15.9l1.5,2.2c0.5-0.4,1-0.7,1.5-1l-1.5-2.3c1.5-1.5,1.9-4,0.6-5.8c-1.4-2.1-4.3-2.7-6.4-1.3
		c-2.1,1.4-2.7,4.3-1.3,6.4C14.7,16,17.1,16.7,19.1,15.9z"/>
	<path class="st0" d="M40.9,28.6c-1.9-1.2-4.3-0.8-5.8,0.8l-2.6-1.6c-0.3,0.5-0.6,1.1-1,1.5l2.7,1.6c-0.7,2,0,4.4,2,5.5
		c2.2,1.3,5,0.6,6.4-1.6C43.8,32.7,43.1,29.9,40.9,28.6z"/>
	<path class="st0" d="M23.7,35.3l0.8-3.2c-0.6-0.1-1.2-0.2-1.8-0.4L22,34.9c-2.2-0.1-4.2,1.3-4.7,3.5c-0.6,2.5,0.8,5,3.3,5.6
		c2.5,0.6,5-0.8,5.6-3.3C26.7,38.5,25.7,36.3,23.7,35.3z"/>
	<circle class="st0" cx="25.5" cy="24.4" r="5.9"/>
</g>
</svg>
