<?xml version="1.0" encoding="utf-8"?>
<!-- Generator: Adobe Illustrator 20.1.0, SVG Export Plug-In . SVG Version: 6.00 Build 0)  -->
<svg version="1.1" id="Layer_1" xmlns="http://www.w3.org/2000/svg" xmlns:xlink="http://www.w3.org/1999/xlink" x="0px" y="0px"
	 viewBox="0 0 50 50" style="enable-background:new 0 0 50 50;" xml:space="preserve">
<style type="text/css">
	.st0{fill:#0000FF;}
</style>
<g>
	<g>
		<g>
			<path class="st0" d="M30.5,16.1c0.2,0.2,0.2,0.2,0.2,0.3l-7.4,26c-0.3,1.3-0.5,2.2-0.5,2.5s0,0.7,0.2,1c0.2,0.3,0.5,0.5,0.8,0.5
				c0.8,0,1.8-0.7,3.4-2.2c0.8-0.8,1.8-2,3-3.7l1,0.8l-0.5,0.3c-1.8,2.5-3.4,4.4-4.5,5.5C24.3,49,22.5,50,20.6,50
				c-1,0-1.8-0.5-2.7-1.3c-0.7-0.8-1-1.8-1-3.2c0-0.7,0-1.3,0.2-1.8c0.2-0.5,0.3-1.3,0.5-2.3l5.2-18.8c0-0.3,0.2-0.5,0.2-0.8
				c0-0.2,0-0.5,0-0.7c0-0.8-0.3-1.3-1-1.7c-0.7-0.2-1.8-0.3-3.9-0.3v-1.2c2-0.2,3.5-0.5,4.4-0.5c0.8-0.2,1.8-0.3,2.7-0.5
				c1.2-0.2,2.2-0.3,3.4-0.7C29.7,16.1,30.4,15.9,30.5,16.1z M27,6.9C26.3,6,26,5.2,26,4s0.3-2,1-2.9S28.5,0,29.5,0s1.8,0.3,2.5,1.2
				c0.7,0.8,1,1.7,1,2.9s-0.3,2-1,2.9c-0.7,0.8-1.5,1.2-2.5,1.2C28.7,8.1,27.7,7.7,27,6.9z"/>
		</g>
	</g>
</g>
</svg>
