<?xml version="1.0" encoding="utf-8"?>
<!-- Generator: Adobe Illustrator 20.1.0, SVG Export Plug-In . SVG Version: 6.00 Build 0)  -->
<svg version="1.1" id="Layer_1" xmlns="http://www.w3.org/2000/svg" xmlns:xlink="http://www.w3.org/1999/xlink" x="0px" y="0px"
	 viewBox="0 0 50 50" style="enable-background:new 0 0 50 50;" xml:space="preserve">
<style type="text/css">
	.st0{fill:#909390;}
</style>
<g>
	<g>
		<path class="st0" d="M13.2,35.2l6.6-6.9c1.6-1.7,2.6-3.3,2.6-4.9s-0.9-2.6-2.6-2.6c-1.7,0-2.8,1-3.1,3.5h-2.9
			c0.2-3.7,2.5-5.9,6.2-5.9c3.6,0,5.8,2.1,5.8,5.1c0,2.3-1.4,4.2-3.4,6.2l-3.8,3.7H26v2.5H13.2C13.2,35.7,13.2,35.2,13.2,35.2z"/>
	</g>
	<g>
		<path class="st0" d="M31.3,21.6L27.6,24v-2.8l4-2.8h2.9v17.3h-3.3V21.6z"/>
	</g>
</g>
<path class="st0" d="M7.9,11.9h34.3h2.2C40.9,4.9,33.6,0,25,0S9.1,4.9,5.6,11.9H7.9z"/>
<g>
	<path class="st0" d="M25,4c11.6,0,21,9.4,21,21s-9.4,21-21,21S4,36.6,4,25S13.4,4,25,4 M25,0C11.2,0,0,11.2,0,25s11.2,25,25,25
		s25-11.2,25-25S38.8,0,25,0L25,0z"/>
</g>
</svg>
