<?xml version="1.0" encoding="utf-8"?>
<!-- Generator: Adobe Illustrator 20.1.0, SVG Export Plug-In . SVG Version: 6.00 Build 0)  -->
<svg version="1.1" id="Layer_1" xmlns="http://www.w3.org/2000/svg" xmlns:xlink="http://www.w3.org/1999/xlink" x="0px" y="0px"
	 viewBox="0 0 50 50" style="enable-background:new 0 0 50 50;" xml:space="preserve">
<style type="text/css">
	.st0{fill:#0000FF;}
</style>
<g>
	<path class="st0" d="M13.7,27.6c-2.5,0-4.5-2-4.5-4.5s2-4.5,4.5-4.5s4.5,2,4.5,4.5S16.2,27.6,13.7,27.6z"/>
	<path class="st0" d="M37.4,27.6c-3.4,0-6.2-2.8-6.2-6.2s2.8-6.2,6.2-6.2c3.4,0,6.2,2.8,6.2,6.2S40.8,27.6,37.4,27.6z"/>
	<path class="st0" d="M25,0C11.2,0,0,11.2,0,25c0,13.8,11.2,25,25,25c13.8,0,25-11.2,25-25C50,11.2,38.8,0,25,0z M21,47.6V32.1
		c-2-1.8-5.4-2.8-8.4-2.8S8,29.7,5.2,31.5l-0.1,5.1c-2-3.4-3.1-7.3-3.1-11.5C2.1,12.4,12.4,2.1,25,2.1c12.6,0,22.9,10.3,22.9,22.9
		c0,2.5-0.4,5-1.2,7.3c-2.6-1.8-6.5-2.9-9.7-2.9c-3.2,0-7,1.2-9,3.1v15.3c-1,0.1-2.2,0.2-3.2,0.2C23.6,47.9,22,47.8,21,47.6z"/>
</g>
</svg>
