<?xml version="1.0" encoding="utf-8"?>
<!-- Generator: Adobe Illustrator 20.1.0, SVG Export Plug-In . SVG Version: 6.00 Build 0)  -->
<svg version="1.1" id="Layer_1" xmlns="http://www.w3.org/2000/svg" xmlns:xlink="http://www.w3.org/1999/xlink" x="0px" y="0px"
	 viewBox="0 0 50 50" style="enable-background:new 0 0 50 50;" xml:space="preserve">
<style type="text/css">
	.st0{fill:#909390;}
</style>
<g>
	<path class="st0" d="M25,4c11.6,0,21,9.4,21,21s-9.4,21-21,21S4,36.6,4,25S13.4,4,25,4 M25,0C11.2,0,0,11.2,0,25s11.2,25,25,25
		s25-11.2,25-25S38.8,0,25,0L25,0z"/>
</g>
<g id="Layer_2">
</g>
<path class="st0" d="M40.4,30.4c0-0.5-1.4-0.7-4.3-0.7c1.4-0.6,2.5-1.3,2.5-1.9c0-1.4-1.8-2-5.9-2.1l0,0c1.6-1.2,1.9-2.9,1.9-3.9
	c0-3.9-3.2-6.5-7-6.5s-7.1,3.2-7.1,7.1c0,0.3,0.1,1.2,0.3,1.5c-0.8-2.2-2.6-2.6-4.1-1.9c-3.7,1.8-1.1,5.3-1.1,5.3s-0.6-0.8-2.2-0.9
	c-3.1-0.1-4.2,1.1-4.2,2.5s1.9,2.5,4.2,2.5h20.9C37.3,31.3,40.4,30.9,40.4,30.4z"/>
</svg>
