<?xml version="1.0" encoding="utf-8"?>
<!-- Generator: Adobe Illustrator 20.1.0, SVG Export Plug-In . SVG Version: 6.00 Build 0)  -->
<svg version="1.1" xmlns="http://www.w3.org/2000/svg" xmlns:xlink="http://www.w3.org/1999/xlink" x="0px" y="0px"
	 viewBox="0 0 50 50" style="enable-background:new 0 0 50 50;" xml:space="preserve">
<style type="text/css">
	.st0{fill:#0000FF;}
</style>
<g id="Layer_1">
	<g>
		<path class="st0" d="M25,3c12.1,0,22,9.9,22,22s-9.9,22-22,22S3,37.1,3,25S12.9,3,25,3 M25,0C11.2,0,0,11.2,0,25s11.2,25,25,25
			s25-11.2,25-25S38.8,0,25,0L25,0z"/>
	</g>
	<path class="st0" d="M25,24.6"/>
	<path class="st0" d="M40.1,30.9l1.1-3.9l-4.7-2.4c0-0.8-0.1-1.7-0.3-2.6l3.9-3.6l-2-3.6L33,16.4c-0.5-0.5-1.2-1-1.9-1.5l0.2-5.2
		l-3.9-1.1l-2.6,4.6c-0.7,0-1.5,0.1-2.1,0.3L22.4,13l-3.5-3.5l-3.6,2l1.2,4.7l0.3,0.5c-0.5,0.5-1,1.1-1.5,1.8h-0.5l-4.9-0.1
		l-1.1,3.9l4.2,2.8l0.5,0.2c0,0.9,0.1,1.3,0.3,1.9l-0.5,0.3l-3.4,3.5l2,3.6l4.7-1.2l0.4-0.3c0.5,0.5,0.9,0.8,1.6,1.3l-0.1,0.5
		l0.1,5.1l3.9,1.1l2.6-4.4l0.1-0.5c0.9,0,1.6-0.1,2.4-0.3l3.6,3.9l3.6-2l-1.5-5.1c0.5-0.5,0.9-1.1,1.4-1.7L40.1,30.9z M32.3,26.6
		c-0.5,2-1.8,3.6-3.5,4.6c-1.5,0.8-3.2,1.2-4.9,0.9c-0.3,0-0.5-0.1-0.7-0.2c-4-1.1-6.3-5.2-5.2-9.2s5.2-6.3,9.2-5.2
		C31,18.6,33.3,22.7,32.3,26.6z"/>
</g>
<g id="Layer_2">
</g>
</svg>
