<?xml version="1.0" encoding="utf-8"?>
<!-- Generator: Adobe Illustrator 20.1.0, SVG Export Plug-In . SVG Version: 6.00 Build 0)  -->
<svg version="1.1" id="Layer_1" xmlns="http://www.w3.org/2000/svg" xmlns:xlink="http://www.w3.org/1999/xlink" x="0px" y="0px"
	 viewBox="0 0 50 50" style="enable-background:new 0 0 50 50;" xml:space="preserve">
<style type="text/css">
	.st0{fill:#0000FF;}
	.st1{fill:#FFFFFF;}
</style>
<g>
	<path class="st0" d="M25,0C11.2,0,0,11.2,0,25c0,13.8,11.2,25,25,25c13.8,0,25-11.2,25-25C50,11.2,38.8,0,25,0z"/>
	<g>
		<path class="st1" d="M13.7,27.6c-2.5,0-4.5-2-4.5-4.5s2-4.5,4.5-4.5s4.5,2,4.5,4.5S16.2,27.6,13.7,27.6z"/>
	</g>
	<path class="st1" d="M37.4,27.6c-3.4,0-6.2-2.8-6.2-6.2s2.8-6.2,6.2-6.2c3.4,0,6.2,2.8,6.2,6.2S40.8,27.6,37.4,27.6z"/>
	<path class="st1" d="M46.8,32.3L46.8,32.3c-2.7-2-6.3-2.9-9.7-2.9c-3.4,0-8,1.2-9,3.2v15.2C36,47,41.5,43.7,46.8,32.3z"/>
	<path class="st1" d="M12.6,29.3c-3,0-4.7,0.4-7.4,2.2l-0.1,5.1c1.1,2,1.8,2.7,3.5,4.2c3.4,3.2,8.3,6.3,12.3,6.9V32.1
		C19,30.3,15.6,29.3,12.6,29.3z"/>
	<g>
		<path class="st1" d="M24.2,18.4c-1.1,0-2-0.9-2-2c0-1.1,0.9-2,2-2c1.1,0,2,0.9,2,2C26.3,17.5,25.4,18.4,24.2,18.4z"/>
	</g>
	<path class="st1" d="M20,21v7.1c0,0.2,3,1.4,3,1.6v4.4l3-0.9V30c0-0.3,2-1.6,2-1.8V21C28,19,20,19,20,21z"/>
</g>
</svg>
