<?xml version="1.0" encoding="utf-8"?>
<!-- Generator: Adobe Illustrator 20.1.0, SVG Export Plug-In . SVG Version: 6.00 Build 0)  -->
<svg version="1.1" id="Layer_1" xmlns="http://www.w3.org/2000/svg" xmlns:xlink="http://www.w3.org/1999/xlink" x="0px" y="0px"
	 viewBox="0 0 50 50" style="enable-background:new 0 0 50 50;" xml:space="preserve">
<style type="text/css">
	.st0{fill:#0000FF;}
</style>
<g>
	<path class="st0" d="M25,0C11.2,0,0,11.2,0,25c0,13.8,11.2,25,25,25s25-11.2,25-25C50,11.2,38.8,0,25,0z M25,47.9
		c-12.6,0-22.9-10.1-22.9-22.7c0-4.2,1.1-8.2,3.1-11.2h39.7c1.9,3,3.1,7.1,3.1,11.2C47.9,37.8,37.6,47.9,25,47.9z"/>
	<g>
		<g>
			<path class="st0" d="M12.2,37.8l7.2-7.6c1.8-1.9,2.9-3.6,2.9-5.4c0-1.8-1-2.9-2.8-2.9c-1.9,0-3.1,1.1-3.4,3.8h-3.2
				c0.2-4.1,2.7-6.5,6.8-6.5c3.9,0,6.3,2.3,6.3,5.6c0,2.5-1.5,4.6-3.7,6.8l-4.2,4.1h8.1v2.7H12.2V37.8z"/>
		</g>
		<g>
			<path class="st0" d="M32,22.9l-4,2.7v-3.1l4.4-3.1h3.2v19H32V22.9z"/>
		</g>
	</g>
</g>
</svg>
