<?xml version="1.0" encoding="utf-8"?>
<!-- Generator: Adobe Illustrator 20.1.0, SVG Export Plug-In . SVG Version: 6.00 Build 0)  -->
<svg version="1.1" id="Layer_1" xmlns="http://www.w3.org/2000/svg" xmlns:xlink="http://www.w3.org/1999/xlink" x="0px" y="0px"
	 viewBox="0 0 50 50" style="enable-background:new 0 0 50 50;" xml:space="preserve">
<style type="text/css">
	.st0{fill:#0000FF;}
	.st1{fill:none;stroke:#0000FF;stroke-miterlimit:10;}
	.st2{fill:#ECF0F1;}
</style>
<circle class="st0" cx="22" cy="12.8" r="3.2"/>
<circle class="st0" cx="12.5" cy="30.1" r="3.2"/>
<circle class="st0" cx="36.2" cy="32.4" r="3.2"/>
<line class="st1" x1="22" y1="12.8" x2="24.6" y2="23.3"/>
<line class="st1" x1="12.5" y1="30" x2="24.9" y2="24.8"/>
<line class="st1" x1="36.2" y1="32.4" x2="25.8" y2="25"/>
<g>
	<path class="st0" d="M25,4c11.6,0,21,9.4,21,21s-9.4,21-21,21S4,36.6,4,25S13.4,4,25,4 M25,0C11.2,0,0,11.2,0,25s11.2,25,25,25
		s25-11.2,25-25S38.8,0,25,0L25,0z"/>
</g>
<g>
	<g>
		<g>
			<circle class="st0" cx="24.9" cy="24.8" r="6.2"/>
			<path class="st2" d="M24.9,19.7c2.8,0,5.1,2.3,5.1,5.1s-2.3,5.1-5.1,5.1s-5.1-2.3-5.1-5.1S22.1,19.7,24.9,19.7 M24.9,17.4
				c-4,0-7.4,3.4-7.4,7.4s3.4,7.4,7.4,7.4s7.4-3.4,7.4-7.4S28.9,17.4,24.9,17.4L24.9,17.4z"/>
		</g>
	</g>
</g>
</svg>
