<?xml version="1.0" encoding="utf-8"?>
<!-- Generator: Adobe Illustrator 20.1.0, SVG Export Plug-In . SVG Version: 6.00 Build 0)  -->
<svg version="1.1" id="Layer_1" xmlns="http://www.w3.org/2000/svg" xmlns:xlink="http://www.w3.org/1999/xlink" x="0px" y="0px"
	 viewBox="0 0 50 50" style="enable-background:new 0 0 50 50;" xml:space="preserve">
<style type="text/css">
	.st0{fill:#0000FF;}
	.st1{fill:#FFFFFF;}
</style>
<g>
	<g>
		<g>
			<g>
				<path class="st0" d="M25,50C11.2,50,0,38.8,0,25C0,11.2,11.2,0,25,0s25,11.2,25,25C50,38.8,38.8,50,25,50z M25,2.1
					C12.4,2.1,2.1,12.4,2.1,25c0,12.6,10.3,22.9,22.9,22.9c12.6,0,22.9-10.3,22.9-22.9C47.9,12.4,37.6,2.1,25,2.1z"/>
			</g>
		</g>
	</g>
	<path class="st0" d="M38,15H12.7c-1,0-1.7,0.8-1.7,1.8v15c0,1,0.7,1.2,1.7,1.2h14.9l5.4,7.2V33h5c1,0,2-0.2,2-1.2v-15
		C40,15.8,39,15,38,15z"/>
	<g>
		<circle class="st1" cx="18.2" cy="24.6" r="2.3"/>
		<circle class="st1" cx="25.3" cy="24.6" r="2.3"/>
		<circle class="st1" cx="32.4" cy="24.6" r="2.3"/>
	</g>
</g>
</svg>
