<?xml version="1.0" encoding="utf-8"?>
<!-- Generator: Adobe Illustrator 20.1.0, SVG Export Plug-In . SVG Version: 6.00 Build 0)  -->
<svg version="1.1" id="Layer_1" xmlns="http://www.w3.org/2000/svg" xmlns:xlink="http://www.w3.org/1999/xlink" x="0px" y="0px"
	 viewBox="0 0 50 50" style="enable-background:new 0 0 50 50;" xml:space="preserve">
<style type="text/css">
	.st0{fill:#0000FF;}
	.st1{fill:#FFFFFF;}
</style>
<g>
	<g>
		<g>
			<g>
				<g>
					<path class="st0" d="M25,50C11.2,50,0,38.8,0,25C0,11.2,11.2,0,25,0s25,11.2,25,25C50,38.8,38.8,50,25,50z"/>
				</g>
			</g>
		</g>
	</g>
	<path class="st1" d="M37.9,15H12.6c-1,0-1.6,0.8-1.6,1.9v15c0,1,0.6,1.1,1.6,1.1h14.9l5.5,7.2V33h4.9c1,0,2.1-0.1,2.1-1.1v-15
		C40,15.8,38.9,15,37.9,15z"/>
	<g>
		<circle class="st0" cx="18" cy="24.6" r="2.3"/>
		<circle class="st0" cx="25.1" cy="24.6" r="2.3"/>
		<circle class="st0" cx="32.2" cy="24.6" r="2.3"/>
	</g>
</g>
</svg>
