<?xml version="1.0" encoding="utf-8"?>
<!-- Generator: Adobe Illustrator 20.1.0, SVG Export Plug-In . SVG Version: 6.00 Build 0)  -->
<svg version="1.1" id="Layer_1" xmlns="http://www.w3.org/2000/svg" xmlns:xlink="http://www.w3.org/1999/xlink" x="0px" y="0px"
	 viewBox="0 0 50 50" style="enable-background:new 0 0 50 50;" xml:space="preserve">
<style type="text/css">
	.st0{fill:#0000FF;}
	.st1{fill:#FFFFFF;}
</style>
<circle class="st0" cx="25" cy="25" r="25"/>
<path class="st1" d="M41.4,31.5l1.2-4.3l-5-2.6c0-0.9-0.1-1.9-0.3-2.8l4.3-4l-2.2-3.9l-5.6,1.7c-0.6-0.6-1.3-1.1-2.1-1.6l0.2-5.6
	l-4.3-1.2l-2.9,4.9c-0.8,0-1.6,0.1-2.3,0.3l-0.3-0.5l-3.8-3.8l-3.9,2.2l1.3,5.1l0.3,0.5c-0.6,0.6-1.1,1.2-1.6,2h-0.6l-5.3-0.1
	l-1.2,4.3l4.6,3.1l0.6,0.2c0,1,0.1,1.4,0.3,2.1L12.3,28l-3.7,3.8l2.2,3.9l5.1-1.3l0.4-0.3c0.6,0.5,1,0.9,1.8,1.4l-0.1,0.5l0.1,5.5
	l4.3,1.2l2.8-4.8l0.1-0.5c1,0,1.7-0.1,2.6-0.3l4,4.3l3.9-2.2l-1.6-5.5c0.5-0.6,1-1.2,1.5-1.9L41.4,31.5z M32.9,26.9
	c-0.6,2.2-2,3.9-3.8,4.9c-1.6,0.9-3.5,1.3-5.3,1c-0.3,0-0.6-0.1-0.8-0.2c-4.4-1.2-6.8-5.6-5.6-10s5.6-6.8,10-5.6
	C31.5,18.2,34,22.6,32.9,26.9z"/>
</svg>
