<?xml version="1.0" encoding="utf-8"?>
<!-- Generator: Adobe Illustrator 20.1.0, SVG Export Plug-In . SVG Version: 6.00 Build 0)  -->
<svg version="1.1" id="Layer_1" xmlns="http://www.w3.org/2000/svg" xmlns:xlink="http://www.w3.org/1999/xlink" x="0px" y="0px"
	 viewBox="0 0 50 50" style="enable-background:new 0 0 50 50;" xml:space="preserve">
<style type="text/css">
	.st0{fill:#0000FF;}
</style>
<path class="st0" d="M25,0C11.2,0,0,11.2,0,25s11.2,25,25,25s25-11.2,25-25S38.8,0,25,0z M26.1,38.4h-14v-0.6l7.2-7.6
	c1.8-1.9,2.9-3.6,2.9-5.4s-1-2.9-2.8-2.9c-1.9,0-3.1,1.1-3.4,3.8h-3.2c0.2-4.1,2.7-6.5,6.8-6.5c3.9,0,6.3,2.3,6.3,5.6
	c0,2.5-1.5,4.6-3.7,6.8L18,35.7h8.1V38.4z M35.5,38.4h-3.6V22.9l-4,2.7v-3.1l4.4-3.1h3.2V38.4z M5.2,14C9.1,7,16.5,2.5,25,2.5
	S40.9,7,44.8,14H5.2z"/>
</svg>
