<?xml version="1.0" encoding="utf-8"?>
<!-- Generator: Adobe Illustrator 20.1.0, SVG Export Plug-In . SVG Version: 6.00 Build 0)  -->
<svg version="1.1" id="Layer_1" xmlns="http://www.w3.org/2000/svg" xmlns:xlink="http://www.w3.org/1999/xlink" x="0px" y="0px"
	 viewBox="0 0 50 50" style="enable-background:new 0 0 50 50;" xml:space="preserve">
<style type="text/css">
	.st0{fill:#909390;}
</style>
<g id="Layer_1_1_">
	<g>
		<path class="st0" d="M25,3c12.1,0,22,9.9,22,22s-9.9,22-22,22S3,37.1,3,25S12.9,3,25,3 M25,0C11.2,0,0,11.2,0,25s11.2,25,25,25
			s25-11.2,25-25S38.8,0,25,0L25,0z"/>
	</g>
	<path class="st0" d="M25,24.6"/>
</g>
<g id="Layer_2">
</g>
<polygon class="st0" points="37,17.4 32.6,13 25,20.6 17.4,13 13,17.4 20.6,25 13,32.6 17.4,37 25,29.4 32.6,37 37,32.6 29.4,25 "/>
</svg>
