<?xml version="1.0" encoding="utf-8"?>
<!-- Generator: Adobe Illustrator 20.1.0, SVG Export Plug-In . SVG Version: 6.00 Build 0)  -->
<svg version="1.1" id="Layer_1" xmlns="http://www.w3.org/2000/svg" xmlns:xlink="http://www.w3.org/1999/xlink" x="0px" y="0px"
	 viewBox="0 0 50 50" style="enable-background:new 0 0 50 50;" xml:space="preserve">
<style type="text/css">
	.st0{fill:#0000FF;}
</style>
<g>
	<path class="st0" d="M25,50C11.2,50,0,38.8,0,25S11.2,0,25,0s25,11.2,25,25S38.8,50,25,50z M25,2.1C12.4,2.1,2.1,12.4,2.1,25
		S12.4,47.9,25,47.9S47.9,37.6,47.9,25S37.6,2.1,25,2.1z"/>
</g>
<path class="st0" d="M25,24.6"/>
<path class="st0" d="M41.6,31.5l1.2-4.3l-5.1-2.6c0-0.9-0.1-1.9-0.3-2.8l4.3-4l-2.2-3.9l-5.7,1.7c-0.6-0.6-1.3-1.1-2.1-1.6l0.2-5.7
	l-4.3-1.2l-2.9,5c-0.8,0-1.6,0.1-2.3,0.3l-0.3-0.5l-3.8-3.8l-3.9,2.2l1.3,5.2L16,16c-0.6,0.6-1.1,1.2-1.6,2h-0.6l-5.4-0.1l-1.2,4.3
	l4.6,3.1l0.6,0.2c0,1,0.1,1.4,0.3,2.1l-0.5,0.3l-3.7,3.8l2.2,3.9l5.2-1.3l0.4-0.3c0.6,0.5,1,0.9,1.8,1.4L18,35.9l0.1,5.6l4.3,1.2
	l2.8-4.8l0.1-0.5c1,0,1.7-0.1,2.6-0.3l4,4.3l3.9-2.2l-1.6-5.6c0.5-0.6,1-1.2,1.5-1.9L41.6,31.5z M33,26.8c-0.6,2.2-2,3.9-3.8,5
	c-1.6,0.9-3.5,1.3-5.4,1c-0.3,0-0.6-0.1-0.8-0.2c-4.4-1.2-6.9-5.7-5.7-10.1c1.2-4.4,5.7-6.9,10.1-5.7C31.6,18,34.1,22.5,33,26.8z"/>
</svg>
