<?xml version="1.0" encoding="utf-8"?>
<!-- Generator: Adobe Illustrator 20.1.0, SVG Export Plug-In . SVG Version: 6.00 Build 0)  -->
<svg version="1.1" id="Layer_1" xmlns="http://www.w3.org/2000/svg" xmlns:xlink="http://www.w3.org/1999/xlink" x="0px" y="0px"
	 viewBox="0 0 50 50" style="enable-background:new 0 0 50 50;" xml:space="preserve">
<style type="text/css">
	.st0{fill:#0000FF;}
	.st1{fill:none;stroke:#0000FF;stroke-width:2;stroke-miterlimit:10;}
	.st2{fill:#ECF0F1;}
</style>
<g>
	<path class="st0" d="M25,3c12.1,0,22,9.9,22,22s-9.9,22-22,22S3,37.1,3,25S12.9,3,25,3 M25,0C11.2,0,0,11.2,0,25s11.2,25,25,25
		s25-11.2,25-25S38.8,0,25,0L25,0z"/>
</g>
<circle class="st0" cx="21.9" cy="12.9" r="3.7"/>
<circle class="st0" cx="10.8" cy="30.3" r="3.7"/>
<circle class="st0" cx="37.6" cy="33.6" r="3.7"/>
<line class="st1" x1="21.9" y1="12.9" x2="25" y2="25"/>
<line class="st1" x1="10.8" y1="30.2" x2="25" y2="25"/>
<line class="st1" x1="37.6" y1="33.6" x2="25.6" y2="25.1"/>
<g>
	<g>
		<circle class="st0" cx="25" cy="25" r="5.9"/>
		<path class="st2" d="M25,19.8c2.8,0,5.2,2.3,5.2,5.2s-2.3,5.2-5.2,5.2s-5.2-2.3-5.2-5.2S22.2,19.8,25,19.8 M25,18.3
			c-3.7,0-6.7,3-6.7,6.7s3,6.7,6.7,6.7s6.7-3,6.7-6.7S28.7,18.3,25,18.3L25,18.3z"/>
	</g>
</g>
</svg>
