<?xml version="1.0" encoding="utf-8"?>
<!-- Generator: Adobe Illustrator 20.1.0, SVG Export Plug-In . SVG Version: 6.00 Build 0)  -->
<svg version="1.1" id="Layer_1" xmlns="http://www.w3.org/2000/svg" xmlns:xlink="http://www.w3.org/1999/xlink" x="0px" y="0px"
	 viewBox="0 0 50 50" style="enable-background:new 0 0 50 50;" xml:space="preserve">
<style type="text/css">
	.st0{fill:#0000FF;}
</style>
<g id="Layer_2">
</g>
<g>
	<path class="st0" d="M25,4c11.6,0,21,9.4,21,21s-9.4,21-21,21S4,36.6,4,25S13.4,4,25,4 M25,0C11.2,0,0,11.2,0,25s11.2,25,25,25
		s25-11.2,25-25S38.8,0,25,0L25,0z"/>
</g>
<g id="Layer_2_1_">
</g>
<path class="st0" d="M38.6,29.8c0-0.4-1-0.7-2.3-0.8c0.6-0.4,0.9-0.9,0.9-1.4c0-1.2-1.7-2.2-3.8-2.2c0,0,0,0,0,0
	c0.4-0.8,0.6-1.7,0.6-2.6c0-3.4-2.8-6.2-6.2-6.2c-3.4,0-6.2,2.8-6.2,6.2c0,0.3,0,0.7,0.1,1c-0.5-0.3-1.1-0.5-1.7-0.5
	c-1.8,0-3.1,1.3-3.1,3.3c-0.4-0.1-0.8-0.2-1.6-0.3c-2.7-0.1-3.7,1-3.7,2.2s1.7,2.2,3.7,2.2l17.8,0C35.8,30.6,38.6,30.2,38.6,29.8z"
	/>
</svg>
