<?xml version="1.0" encoding="utf-8"?>
<!-- Generator: Adobe Illustrator 20.1.0, SVG Export Plug-In . SVG Version: 6.00 Build 0)  -->
<svg version="1.1" id="Layer_1" xmlns="http://www.w3.org/2000/svg" xmlns:xlink="http://www.w3.org/1999/xlink" x="0px" y="0px"
	 viewBox="0 0 50 50" style="enable-background:new 0 0 50 50;" xml:space="preserve">
<style type="text/css">
	.st0{fill:#0000FF;}
	.st1{fill:#FFFFFF;}
	.st2{fill:none;stroke:#FFFFFF;stroke-width:2;stroke-miterlimit:10;}
</style>
<g>
	<path class="st0" d="M25,48.5C12,48.5,1.5,38,1.5,25S12,1.5,25,1.5S48.5,12,48.5,25S38,48.5,25,48.5z"/>
	<path class="st0" d="M25,3c12.1,0,22,9.9,22,22s-9.9,22-22,22S3,37.1,3,25S12.9,3,25,3 M25,0C11.2,0,0,11.2,0,25s11.2,25,25,25
		s25-11.2,25-25S38.8,0,25,0L25,0z"/>
</g>
<circle class="st1" cx="21.2" cy="10.6" r="4.5"/>
<circle class="st1" cx="19.3" cy="40.2" r="4.5"/>
<circle class="st1" cx="37.9" cy="33.6" r="4.5"/>
<line class="st2" x1="21.2" y1="10.6" x2="25" y2="25"/>
<line class="st2" x1="19.2" y1="40.7" x2="25" y2="25"/>
<line class="st2" x1="37.9" y1="33.6" x2="25" y2="25"/>
<g>
	<circle class="st1" cx="25" cy="25" r="8"/>
	<path class="st0" d="M25,18c3.9,0,7,3.1,7,7s-3.1,7-7,7s-7-3.1-7-7S21.1,18,25,18 M25,16c-5,0-9,4-9,9s4,9,9,9s9-4,9-9S30,16,25,16
		L25,16z"/>
</g>
</svg>
