<?xml version="1.0" encoding="utf-8"?>
<!-- Generator: Adobe Illustrator 20.1.0, SVG Export Plug-In . SVG Version: 6.00 Build 0)  -->
<svg version="1.1" id="Layer_1" xmlns="http://www.w3.org/2000/svg" xmlns:xlink="http://www.w3.org/1999/xlink" x="0px" y="0px"
	 viewBox="0 0 50 50" style="enable-background:new 0 0 50 50;" xml:space="preserve">
<style type="text/css">
	.st0{fill:#0000FF;}
</style>
<g id="Layer_1_1_">
	<g>
		<path class="st0" d="M25,3c12.1,0,22,9.9,22,22s-9.9,22-22,22S3,37.1,3,25S12.9,3,25,3 M25,0C11.2,0,0,11.2,0,25s11.2,25,25,25
			s25-11.2,25-25S38.8,0,25,0L25,0z"/>
	</g>
	<path class="st0" d="M25,24.6"/>
</g>
<g id="Layer_2">
</g>
<g>
	<path class="st0" d="M21.7,36.8c0-1.8,1.5-3.2,3.3-3.2c1.9,0,3.4,1.4,3.4,3.2c0,1.8-1.5,3.2-3.4,3.2C23.1,40,21.7,38.6,21.7,36.8z
		 M22.2,10h5.6l-0.8,20.8H23L22.2,10z"/>
</g>
</svg>
