<?xml version="1.0" encoding="utf-8"?>
<!-- Generator: Adobe Illustrator 20.1.0, SVG Export Plug-In . SVG Version: 6.00 Build 0)  -->
<svg version="1.1" id="Layer_1" xmlns="http://www.w3.org/2000/svg" xmlns:xlink="http://www.w3.org/1999/xlink" x="0px" y="0px"
	 viewBox="0 0 50 50" style="enable-background:new 0 0 50 50;" xml:space="preserve">
<style type="text/css">
	.st0{fill:#0000FF;}
</style>
<g id="Layer_1_1_">
	<g>
		<path class="st0" d="M25,3c12.1,0,22,9.9,22,22s-9.9,22-22,22S3,37.1,3,25S12.9,3,25,3 M25,0C11.2,0,0,11.2,0,25s11.2,25,25,25
			s25-11.2,25-25S38.8,0,25,0L25,0z"/>
	</g>
	<path class="st0" d="M42.6,30.5c0-0.5-1.3-0.9-3-1c0.7-0.5,1.2-1.2,1.2-1.9c0-1.6-2.2-2.9-5-2.9c0,0,0,0,0,0c0.5-1,0.7-2.2,0.7-3.4
		c0-4.5-3.6-8.1-8.1-8.1c-4.5,0-8.1,3.6-8.1,8.1c0,0.5,0,0.9,0.1,1.3c-0.7-0.4-1.4-0.7-2.3-0.7c-2.3,0-4.1,1.7-4.1,4.4
		c-0.6-0.1-1-0.3-2.1-0.4C8.3,25.7,7,27.2,7,28.8s2.2,2.8,4.9,2.8l23.4,0C38.9,31.6,42.6,31.1,42.6,30.5z"/>
</g>
<g id="Layer_2">
</g>
</svg>
